<?xml version="1.0" encoding="iso-8859-1"?>
<!-- Generator: Adobe Illustrator 19.0.0, SVG Export Plug-In . SVG Version: 6.00 Build 0)  -->
<svg version="1.1" id="Layer_1" xmlns="http://www.w3.org/2000/svg" xmlns:xlink="http://www.w3.org/1999/xlink" x="0px" y="0px"
	 viewBox="0 0 512 512" style="enable-background:new 0 0 512 512;" xml:space="preserve">
<g transform="translate(1 1)">
	<path style="fill:#FFDD09;" d="M135.107,255c0-65.707,53.76-119.467,119.467-119.467H41.24l34.133,51.2l34.133,51.2
		c7.68,11.093,16.213,20.48,26.453,28.16C135.107,262.68,135.107,259.267,135.107,255"/>
	<path style="fill:#FFFFFF;" d="M109.507,237.933l-34.133-51.2l-34.133-51.2H7.107l34.133,51.2l34.133,51.2
		c15.36,23.04,37.547,40.107,64,46.933c-1.707-5.973-2.56-12.8-3.413-18.773C125.72,258.413,117.187,249.027,109.507,237.933"/>
	<path style="fill:#FFDD09;" d="M374.04,255c0-65.707-53.76-119.467-119.467-119.467h213.333l-34.133,51.2l-34.133,51.2
		c-7.68,11.093-16.213,20.48-26.453,28.16C374.04,262.68,374.04,259.267,374.04,255"/>
	<path style="fill:#FD9808;" d="M399.64,237.933l34.133-51.2l34.133-51.2h34.133l-34.133,51.2l-34.133,51.2
		c-15.36,23.04-37.547,40.107-64,46.933c1.707-5.973,2.56-12.8,3.413-18.773C383.427,258.413,391.96,249.027,399.64,237.933"/>
	<path style="fill:#FFDD09;" d="M348.44,255c0-65.707-41.813-119.467-93.867-119.467S160.707,189.293,160.707,255
		s41.813,119.467,93.867,119.467S348.44,321.56,348.44,255"/>
	<path style="fill:#FD9808;" d="M254.573,135.533c52.053,0,93.867,53.76,93.867,119.467s-41.813,119.467-93.867,119.467
		c65.707,0,119.467-53.76,119.467-119.467S320.28,135.533,254.573,135.533"/>
	<path style="fill:#FFFFFF;" d="M160.707,255c0-65.707,41.813-119.467,93.867-119.467c-65.707,0-119.467,53.76-119.467,119.467
		s53.76,119.467,119.467,119.467C202.52,374.467,160.707,321.56,160.707,255"/>
	<polygon style="fill:#54C9FD;" points="254.573,178.2 280.173,212.333 322.84,212.333 299.8,257.56 322.84,297.667 
		280.173,297.667 254.573,331.8 228.973,297.667 186.307,297.667 209.347,257.56 186.307,212.333 228.973,212.333 	"/>
	<g>
		<path style="fill:#110E0E;" d="M254.573,383c-12.8,0-24.747-1.707-36.693-5.12c-4.267-1.707-6.827-5.973-5.973-10.24
			c1.707-4.267,5.973-6.827,10.24-5.973c10.24,3.413,20.48,4.267,31.573,4.267c61.44,0,110.933-49.493,110.933-110.933
			s-48.64-110.933-110.08-110.933S143.64,193.56,143.64,255c0,29.867,11.947,58.027,33.28,79.36c3.413,3.413,3.413,8.533,0,11.947
			s-8.533,3.413-11.947,0c-24.747-23.893-38.4-56.32-38.4-91.307c0-70.827,57.173-128,128-128s128,57.173,128,128
			S325.4,383,254.573,383z"/>
		<path style="fill:#110E0E;" d="M369.773,294.253c-2.56,0-4.267-0.853-5.973-2.56c-2.56-2.56-3.413-5.12-2.56-8.533
			c2.56-9.387,3.413-18.773,3.413-28.16c0-5.12,0-9.387-0.853-16.213c0-2.56,0-5.12,1.707-6.827s4.267-2.56,6.827-2.56h61.44
			c3.413,0,5.973,1.707,7.68,4.267c1.707,2.56,1.707,5.973,0,8.533c-17.067,25.6-40.96,42.667-68.267,50.347
			C371.48,294.253,370.627,294.253,369.773,294.253z M382.573,246.467c0,2.56,0,5.973,0,8.533c0,5.973,0,11.093-0.853,17.067
			c12.8-5.973,24.747-14.507,34.987-25.6H382.573z"/>
		<path style="fill:#110E0E;" d="M139.373,294.253c-0.853,0-1.707,0-2.56,0c-28.16-7.68-52.053-25.6-68.267-50.347
			c-1.707-2.56-1.707-5.973,0-8.533c0.853-4.267,3.413-5.973,6.827-5.973h61.44c2.56,0,5.12,0.853,6.827,2.56
			c1.707,1.707,1.707,4.267,0.853,6.827c-1.707,6.827-0.853,11.947-0.853,16.213c0,9.387,0.853,18.773,3.413,28.16
			c0.853,2.56,0,5.973-2.56,8.533C143.64,293.4,141.08,294.253,139.373,294.253z M92.44,246.467
			c10.24,11.093,22.187,19.627,34.987,25.6c-0.853-5.12-0.853-11.093-0.853-17.067c0-2.56,0-5.973,0-8.533H92.44z"/>
		<path style="fill:#110E0E;" d="M136.813,246.467h-61.44c-2.56,0-5.12-1.707-6.827-3.413l-34.133-51.2
			c-1.707-2.56-1.707-5.973,0-8.533c0.853-3.413,3.413-5.12,6.827-5.12h115.2c3.413,0,5.973,1.707,7.68,4.267
			c1.707,2.56,0.853,5.973-0.853,8.533c-9.387,13.653-16.213,30.72-18.773,47.787C144.493,243.907,141.08,246.467,136.813,246.467z
			 M79.64,229.4h49.493c2.56-11.947,6.827-23.04,11.947-34.133H57.453L79.64,229.4z"/>
		<path style="fill:#110E0E;" d="M433.773,246.467h-61.44c-4.267,0-7.68-3.413-8.533-7.68c-2.56-17.067-8.533-33.28-18.773-47.787
			c-1.707-2.56-1.707-5.973-0.853-8.533c0.853-2.56,5.12-4.267,8.533-4.267h115.2c3.413,0,5.973,1.707,7.68,4.267
			s1.707,5.973,0,8.533l-34.133,51.2C438.893,245.613,436.333,246.467,433.773,246.467z M380.013,229.4h49.493l23.04-34.133h-84.48
			C373.187,206.36,377.453,217.453,380.013,229.4z"/>
		<path style="fill:#110E0E;" d="M156.44,195.267H41.24c-2.56,0-5.12-0.853-6.827-3.413l-34.133-51.2
			c-1.707-2.56-1.707-5.973,0-8.533c0.853-3.413,3.413-5.12,6.827-5.12h247.467c5.12,0,8.533,3.413,8.533,8.533
			c0,5.12-3.413,8.533-8.533,8.533c-35.84,0-69.973,17.92-91.307,47.787C162.413,194.413,159,195.267,156.44,195.267z M45.507,178.2
			h106.667c10.24-13.653,23.893-25.6,38.4-34.133H23.32L45.507,178.2z"/>
		<path style="fill:#110E0E;" d="M467.907,195.267h-115.2c-2.56,0-5.12-1.707-6.827-3.413
			c-21.333-29.867-55.467-47.787-91.307-47.787c-5.12,0-8.533-3.413-8.533-8.533c0-5.12,3.413-8.533,8.533-8.533H502.04
			c3.413,0,5.973,1.707,7.68,4.267c1.707,2.56,1.707,5.973,0,8.533L475.587,191C473.027,194.413,470.467,195.267,467.907,195.267z
			 M356.973,178.2H463.64l23.04-34.133H318.573C333.08,152.6,346.733,164.547,356.973,178.2z"/>
		<path style="fill:#110E0E;" d="M254.573,340.333c-2.56,0-5.12-0.853-6.827-3.413l-23.04-30.72h-38.4
			c-3.413,0-5.973-1.707-7.68-4.267c-1.707-2.56-1.707-5.973,0-8.533l20.48-36.693l-20.48-40.107c-1.707-2.56-0.853-5.973,0-8.533
			c1.707-2.56,5.12-4.267,7.68-4.267h38.4l23.04-30.72c1.707-1.707,4.267-3.413,6.827-3.413l0,0c2.56,0,5.12,0.853,6.827,3.413
			l23.04,30.72h38.4c2.56,0,5.973,1.707,7.68,4.267c1.707,2.56,1.707,5.973,0,8.533l-20.48,40.107l20.48,36.693
			c1.707,2.56,1.707,5.973,0,8.533c-1.707,2.56-4.267,4.267-7.68,4.267h-38.4l-23.04,30.72
			C259.693,339.48,257.133,340.333,254.573,340.333z M200.813,289.133h28.16c2.56,0,5.12,0.853,6.827,3.413l18.773,24.747
			l18.773-24.747c1.707-2.56,4.267-3.413,6.827-3.413h28.16l-16.213-28.16c-1.707-2.56-1.707-5.12,0-7.68l16.213-32.427h-28.16
			c-2.56,0-5.12-0.853-6.827-3.413l-18.773-24.747L235.8,217.453c-1.707,2.56-4.267,3.413-6.827,3.413H199.96l16.213,32.427
			c1.707,2.56,0.853,5.12,0,7.68L200.813,289.133z"/>
		<path style="fill:#110E0E;" d="M203.373,357.4c0-5.12-3.413-8.533-8.533-8.533c-5.12,0-8.533,3.413-8.533,8.533
			s3.413,8.533,8.533,8.533C199.96,365.933,203.373,362.52,203.373,357.4"/>
	</g>
</g>
<g>
</g>
<g>
</g>
<g>
</g>
<g>
</g>
<g>
</g>
<g>
</g>
<g>
</g>
<g>
</g>
<g>
</g>
<g>
</g>
<g>
</g>
<g>
</g>
<g>
</g>
<g>
</g>
<g>
</g>
</svg>
