<?xml version="1.0" encoding="iso-8859-1"?>
<!-- Generator: Adobe Illustrator 19.0.0, SVG Export Plug-In . SVG Version: 6.00 Build 0)  -->
<svg version="1.1" id="Layer_1" xmlns="http://www.w3.org/2000/svg" xmlns:xlink="http://www.w3.org/1999/xlink" x="0px" y="0px"
	 viewBox="0 0 512 512" style="enable-background:new 0 0 512 512;" xml:space="preserve">
<path style="fill:#FFDD09;" d="M256,196.267c13.653,0,33.28,5.973,51.2,20.48V8.533H204.8v208.213
	C220.16,203.947,237.227,196.267,256,196.267"/>
<path style="fill:#54C9FD;" d="M384,349.867c0,84.48-57.173,153.6-128,153.6s-128-69.12-128-153.6s57.173-153.6,128-153.6
	C297.813,196.267,384,229.547,384,349.867"/>
<path style="fill:#FFFFFF;" d="M128,349.867c0-84.48,57.173-153.6,128-153.6c-84.48,0-153.6,69.12-153.6,153.6
	s69.12,153.6,153.6,153.6C185.173,503.467,128,434.347,128,349.867"/>
<path style="fill:#33A9F8;" d="M256,196.267c41.813,0,128,33.28,128,153.6c0,84.48-57.173,153.6-128,153.6
	c84.48,0,153.6-69.12,153.6-153.6C409.6,229.547,305.493,196.267,256,196.267"/>
<path style="fill:#FFFFFF;" d="M204.8,8.533h-25.6v208.213c7.68-5.12,17.067-8.533,25.6-11.947V8.533z"/>
<path style="fill:#FD9808;" d="M307.2,8.533v197.12c8.533,2.56,17.067,6.827,25.6,11.093V8.533H307.2z"/>
<path style="fill:#FFDD09;" d="M256,196.267l42.667,76.8L384,264.533l-51.2,76.8l59.733,76.8l-93.867-8.533L256,503.467
	L213.333,409.6l-93.867,8.533l59.733-76.8l-51.2-76.8l85.333,8.533L256,196.267z"/>
<path style="fill:#54C9FD;" d="M290.133,341.333c0,18.773-15.36,34.133-34.133,34.133s-34.133-15.36-34.133-34.133
	S237.227,307.2,256,307.2S290.133,322.56,290.133,341.333"/>
<g>
	<path style="fill:#020101;" d="M256,512c-3.413,0-5.973-1.707-7.68-5.12l-40.107-88.747l-87.893,8.533
		c-3.413,0-6.827-1.707-8.533-4.267c-1.707-2.56-1.707-6.827,0.853-9.387l56.32-71.68l-47.787-71.68
		c-1.707-2.56-1.707-5.973,0-9.387c1.707-2.56,5.12-4.267,8.533-4.267l79.36,7.68L249.173,192c3.413-5.12,11.947-5.12,14.507,0
		l40.107,71.68l79.36-7.68c3.413,0,6.827,0.853,8.533,4.267c1.707,2.56,1.707,5.973,0,9.387l-48.64,71.68l56.32,71.68
		c1.707,2.56,2.56,5.973,0.853,9.387c-1.707,2.56-5.12,5.12-8.533,4.267l-87.893-7.68l-40.107,88.747
		C261.973,510.293,259.413,512,256,512z M213.333,401.067c3.413,0,5.973,1.707,7.68,5.12l34.987,76.8l34.987-76.8
		c1.707-3.413,5.12-5.12,8.533-5.12l74.24,6.827l-47.787-61.44c-2.56-2.56-2.56-6.827,0-10.24l40.96-61.44L299.52,281.6
		c-3.413,0-6.827-1.707-8.533-4.267L256,214.187l-34.987,63.147c-1.707,2.56-5.12,4.267-8.533,4.267l-67.413-6.827l40.96,61.44
		c1.707,3.413,1.707,6.827,0,10.24l-47.787,61.44L213.333,401.067C212.48,401.067,213.333,401.067,213.333,401.067z"/>
	<path style="fill:#020101;" d="M256,384c-23.893,0-42.667-18.773-42.667-42.667c0-23.893,18.773-42.667,42.667-42.667
		c23.893,0,42.667,18.773,42.667,42.667C298.667,365.227,279.893,384,256,384z M256,315.733c-14.507,0-25.6,11.093-25.6,25.6
		c0,14.507,11.093,25.6,25.6,25.6c14.507,0,25.6-11.093,25.6-25.6C281.6,326.827,270.507,315.733,256,315.733z"/>
	<path style="fill:#020101;" d="M256,145.067c-5.12,0-8.533-3.413-8.533-8.533v-128C247.467,3.413,250.88,0,256,0
		c5.12,0,8.533,3.413,8.533,8.533v128C264.533,141.653,261.12,145.067,256,145.067z"/>
	<path style="fill:#020101;" d="M290.133,128c-5.12,0-8.533-3.413-8.533-8.533V8.533c0-5.12,3.413-8.533,8.533-8.533
		c5.12,0,8.533,3.413,8.533,8.533v110.933C298.667,124.587,295.253,128,290.133,128z"/>
	<path style="fill:#020101;" d="M221.867,128c-5.12,0-8.533-3.413-8.533-8.533V8.533c0-5.12,3.413-8.533,8.533-8.533
		c5.12,0,8.533,3.413,8.533,8.533v110.933C230.4,124.587,226.987,128,221.867,128z"/>
	<path style="fill:#020101;" d="M366.933,17.067H145.067c-5.12,0-8.533-3.413-8.533-8.533S139.947,0,145.067,0h221.867
		c5.12,0,8.533,3.413,8.533,8.533S372.053,17.067,366.933,17.067z"/>
	<path style="fill:#020101;" d="M256,512c-89.6,0-162.133-72.533-162.133-162.133S166.4,187.733,256,187.733
		c62.293,0,162.133,44.373,162.133,162.133C418.133,439.467,345.6,512,256,512z M256,204.8
		c-80.213,0-145.067,64.853-145.067,145.067S175.787,494.933,256,494.933s145.067-64.853,145.067-145.067
		C401.067,231.253,296.107,204.8,256,204.8z"/>
	<path style="fill:#020101;" d="M179.2,225.28c-1.707,0-2.56,0-4.267-0.853c-2.56-1.707-4.267-4.267-4.267-7.68V8.533
		c0-5.12,3.413-8.533,8.533-8.533h153.6c5.12,0,8.533,3.413,8.533,8.533v208.213c0,3.413-1.707,5.973-4.267,7.68
		c-2.56,1.707-5.973,1.707-8.533,0C306.347,211.627,279.04,204.8,256,204.8c-25.6,0-50.347,6.827-72.533,19.627
		C181.76,225.28,180.907,225.28,179.2,225.28z M187.733,17.067v186.027c21.333-10.24,44.373-15.36,68.267-15.36
		c21.333,0,46.08,5.973,68.267,15.36V17.067H187.733z"/>
</g>
<g>
</g>
<g>
</g>
<g>
</g>
<g>
</g>
<g>
</g>
<g>
</g>
<g>
</g>
<g>
</g>
<g>
</g>
<g>
</g>
<g>
</g>
<g>
</g>
<g>
</g>
<g>
</g>
<g>
</g>
</svg>
