<?xml version="1.0" encoding="iso-8859-1"?>
<!-- Generator: Adobe Illustrator 19.0.0, SVG Export Plug-In . SVG Version: 6.00 Build 0)  -->
<svg version="1.1" id="Layer_1" xmlns="http://www.w3.org/2000/svg" xmlns:xlink="http://www.w3.org/1999/xlink" x="0px" y="0px"
	 viewBox="0 0 512.154 512.154" style="enable-background:new 0 0 512.154 512.154;" xml:space="preserve">
<g transform="translate(1)">
	<g>
		<path style="fill:#FFDD09;" d="M374.544,93.944l-34.133,51.2h-17.067v34.133h-8.533v128c45.227-0.853,57.173,1.707,59.733,0
			c23.04-11.947,31.573-36.693,41.813-60.587l60.587-152.747H374.544z"/>
		<path style="fill:#FFDD09;" d="M186.81,179.277L186.81,179.277v-34.133h-17.067l-34.133-51.2H33.21L93.797,246.69
			c9.387,24.747,26.453,48.64,50.347,60.587c2.56,1.707,5.973-0.853,42.667,0V179.277z"/>
		<path style="fill:#FFDD09;" d="M353.21,298.744c13.653-19.627,21.333-42.667,21.333-68.267
			c0-65.707-53.76-119.467-119.467-119.467S135.61,164.77,135.61,230.477c0,25.6,7.68,48.64,21.333,68.267H353.21z"/>
	</g>
	<polygon style="fill:#54C9FD;" points="229.477,273.144 248.25,298.744 261.904,298.744 280.677,273.144 323.344,273.144 
		300.304,230.477 323.344,187.81 280.677,187.81 255.077,153.677 229.477,187.81 186.81,187.81 209.85,230.477 186.81,273.144 	"/>
	<path style="fill:#FFFFFF;" d="M93.797,246.69L33.21,93.944H7.61L68.197,246.69c9.387,24.747,27.307,45.227,50.347,57.173
		c2.56,1.707,5.12,2.56,7.68,3.413v-15.36C112.57,279.97,101.477,263.757,93.797,246.69"/>
	<path style="fill:#FD9808;" d="M476.944,93.944L416.357,246.69c-6.827,17.92-17.92,33.28-33.28,45.227v15.36
		c2.56-0.853,5.12-2.56,7.68-3.413c23.04-11.947,40.96-33.28,50.347-57.173l61.44-152.747H476.944z"/>
	<g>
		<polygon style="fill:#1CD759;" points="75.877,384.077 434.277,384.077 434.277,298.744 75.877,298.744 		"/>
		<polygon style="fill:#1CD759;" points="101.477,384.077 101.477,332.877 33.21,332.877 67.344,375.544 33.21,418.21 
			101.477,418.21 		"/>
	</g>
	<polygon style="fill:#FFFFFF;" points="33.21,332.877 7.61,332.877 41.744,375.544 7.61,418.21 33.21,418.21 67.344,375.544 	"/>
	<polygon style="fill:#1CD759;" points="408.677,384.077 408.677,332.877 476.944,332.877 442.81,375.544 476.944,418.21 
		408.677,418.21 	"/>
	<polygon style="fill:#15A143;" points="476.944,332.877 502.544,332.877 468.41,375.544 502.544,418.21 476.944,418.21 
		442.81,375.544 	"/>
	<path d="M101.477,426.744H7.61c-3.413,0-5.973-1.707-7.68-5.12c-1.707-2.56-0.853-6.827,0.853-9.387l29.867-36.693L0.784,337.997
		c-1.707-2.56-2.56-5.973-0.853-9.387c1.707-1.707,4.267-4.267,7.68-4.267h68.267c5.12,0,8.533,3.413,8.533,8.533v42.667h17.067
		c5.12,0,8.533,3.413,8.533,8.533v34.133C110.01,423.33,106.597,426.744,101.477,426.744z M25.53,409.677h67.413V392.61H75.877
		c-5.12,0-8.533-3.413-8.533-8.533V341.41H25.53l23.04,29.013c2.56,3.413,2.56,7.68,0,10.24L25.53,409.677z"/>
	<path d="M502.544,426.744h-93.867c-5.12,0-8.533-3.413-8.533-8.533v-34.133c0-5.12,3.413-8.533,8.533-8.533h17.067v-42.667
		c0-5.12,3.413-8.533,8.533-8.533h68.267c3.413,0,5.973,1.707,7.68,5.12c1.707,2.56,0.853,6.827-0.853,9.387l-29.867,36.693
		l29.867,37.547c1.707,2.56,2.56,5.973,0.853,9.387C508.517,425.037,505.957,426.744,502.544,426.744z M417.21,409.677h67.413
		l-23.04-29.013c-2.56-3.413-2.56-7.68,0-10.24l23.04-29.013H442.81v42.667c0,5.12-3.413,8.533-8.533,8.533H417.21V409.677z"/>
	<path d="M67.344,136.61h-46.08c-5.12,0-8.533-3.413-8.533-8.533c0-5.12,3.413-8.533,8.533-8.533h46.08
		c5.12,0,8.533,3.413,8.533,8.533C75.877,133.197,72.464,136.61,67.344,136.61z"/>
	<path d="M75.877,170.744h-40.96c-5.12,0-8.533-3.413-8.533-8.533c0-5.12,3.413-8.533,8.533-8.533h40.96
		c5.12,0,8.533,3.413,8.533,8.533C84.41,167.33,80.997,170.744,75.877,170.744z"/>
	<path d="M92.944,204.877H48.57c-5.12,0-8.533-3.413-8.533-8.533s3.413-8.533,8.533-8.533h44.373c5.12,0,8.533,3.413,8.533,8.533
		S98.064,204.877,92.944,204.877z"/>
	<path d="M488.89,136.61h-46.08c-5.12,0-8.533-3.413-8.533-8.533c0-5.12,3.413-8.533,8.533-8.533h46.08
		c5.12,0,8.533,3.413,8.533,8.533C497.424,133.197,494.01,136.61,488.89,136.61z"/>
	<path d="M475.237,170.744h-40.96c-5.12,0-8.533-3.413-8.533-8.533c0-5.12,3.413-8.533,8.533-8.533h40.96
		c5.12,0,8.533,3.413,8.533,8.533C483.77,167.33,480.357,170.744,475.237,170.744z"/>
	<path d="M461.584,204.877H417.21c-5.12,0-8.533-3.413-8.533-8.533s3.413-8.533,8.533-8.533h44.373c5.12,0,8.533,3.413,8.533,8.533
		S466.704,204.877,461.584,204.877z"/>
	<g>
		<path style="fill:#110E0E;" d="M353.21,307.277H156.944c-2.56,0-5.12-1.707-6.827-3.413c-15.36-21.333-23.04-46.933-23.04-73.387
			c0-70.827,57.173-128,128-128s128,57.173,128,128c0,26.453-7.68,51.2-23.04,73.387C358.33,306.424,355.77,307.277,353.21,307.277z
			 M162.064,290.21h186.88c11.093-17.92,17.92-38.4,17.92-59.733c0-61.44-49.493-110.933-110.933-110.933
			s-110.933,49.493-110.933,110.933C144.144,251.81,150.117,272.29,162.064,290.21z"/>
		<path style="fill:#110E0E;" d="M261.904,307.277h-12.8c-2.56,0-5.12-0.853-6.827-3.413l-17.067-22.187h-38.4
			c-3.413,0-5.973-1.707-7.68-4.267c-1.707-2.56-1.707-5.973,0-8.533l20.48-38.4l-20.48-38.4c-1.707-2.56-1.707-5.973,0-8.533
			c1.707-2.56,4.267-4.267,7.68-4.267h38.4l23.04-30.72c1.707-1.707,4.267-3.413,6.827-3.413l0,0c2.56,0,5.12,0.853,6.827,3.413
			l23.04,30.72h38.4c3.413,0,5.973,1.707,7.68,4.267c1.707,2.56,1.707,5.973,0,8.533l-21.333,38.4l20.48,38.4
			c1.707,2.56,1.707,5.973,0,8.533s-3.413,4.267-6.827,4.267h-38.4l-17.067,22.187C267.024,306.424,264.464,307.277,261.904,307.277
			z M253.37,290.21h4.267l17.067-22.187c1.707-2.56,4.267-3.413,6.827-3.413h28.16l-16.213-29.867c-1.707-2.56-1.707-5.973,0-7.68
			l16.213-29.867h-29.013c-2.56,0-5.12-0.853-6.827-3.413l-18.773-25.6l-18.773,24.747c-1.707,2.56-4.267,3.413-6.827,3.413h-28.16
			l16.213,29.867c1.707,2.56,1.707,5.12,0,7.68l-16.213,30.72h28.16c2.56,0,5.12,0.853,6.827,3.413L253.37,290.21z"/>
	</g>
	<path d="M395.877,307.277H353.21c-3.413,0-5.973-1.707-7.68-4.267c-1.707-2.56-0.853-5.973,0.853-8.533
		c12.8-18.773,19.627-40.96,19.627-63.147c0-28.16-10.24-54.613-29.867-75.093c-2.56-2.56-3.413-6.827-0.853-10.24l31.573-55.467
		c1.707-3.413,4.267-5.12,7.68-5.12h128c2.56,0,5.12,1.707,6.827,3.413c1.707,2.56,1.707,5.12,0.853,7.68l-63.147,159.573
		c-3.413,8.533-8.533,17.067-14.507,23.893c-8.533,11.093-20.48,20.48-33.28,26.453C398.437,307.277,396.73,307.277,395.877,307.277
		z M368.57,290.21h25.6c10.24-5.12,18.773-11.947,25.6-20.48c5.12-5.973,8.533-12.8,11.947-19.627l58.027-147.627h-110.08
		l-26.453,46.08c19.627,23.04,29.867,52.053,29.867,81.92C383.077,251.81,377.957,272.29,368.57,290.21z"/>
	<path d="M156.944,307.277h-42.667c-0.853,0-2.56,0-3.413-0.853c-12.8-5.973-24.747-15.36-33.28-26.453
		c-5.973-6.827-11.093-15.36-14.507-23.893L-0.07,97.357c-1.707-2.56-0.853-5.973,0.853-7.68S5.05,85.41,7.61,85.41h128
		c3.413,0,5.973,1.707,7.68,4.267l31.573,55.467c1.707,3.413,1.707,7.68-0.853,10.24c-19.627,20.48-29.867,47.787-29.867,75.093
		c0,23.04,6.827,44.373,19.627,63.147c1.707,2.56,1.707,5.973,0.853,8.533C162.917,305.57,160.357,307.277,156.944,307.277z
		 M115.984,290.21h25.6c-9.387-17.92-14.507-38.4-14.507-59.733c0-29.867,10.24-58.88,29.867-81.92l-26.453-46.08H20.41
		L79.29,249.25c2.56,6.827,6.827,13.653,11.947,19.627C97.21,278.264,106.597,285.09,115.984,290.21z"/>
	<path d="M434.277,392.61h-204.8c-5.12,0-8.533-3.413-8.533-8.533s3.413-8.533,8.533-8.533h196.267v-68.267H84.41v68.267h76.8
		c5.12,0,8.533,3.413,8.533,8.533s-3.413,8.533-8.533,8.533H75.877c-5.12,0-8.533-3.413-8.533-8.533v-85.333
		c0-5.12,3.413-8.533,8.533-8.533h358.4c5.12,0,8.533,3.413,8.533,8.533v85.333C442.81,389.197,439.397,392.61,434.277,392.61z"/>
	<path d="M203.877,384.077c0-5.12-3.413-8.533-8.533-8.533c-5.12,0-8.533,3.413-8.533,8.533s3.413,8.533,8.533,8.533
		C200.464,392.61,203.877,389.197,203.877,384.077"/>
</g>
<g>
</g>
<g>
</g>
<g>
</g>
<g>
</g>
<g>
</g>
<g>
</g>
<g>
</g>
<g>
</g>
<g>
</g>
<g>
</g>
<g>
</g>
<g>
</g>
<g>
</g>
<g>
</g>
<g>
</g>
</svg>
