<?xml version="1.0" encoding="UTF-8"?>
<!DOCTYPE svg PUBLIC "-//W3C//DTD SVG 1.1//EN" "http://www.w3.org/Graphics/SVG/1.1/DTD/svg11.dtd">
<!-- Creator: CorelDRAW 2020 (64-Bit) -->
<svg xmlns="http://www.w3.org/2000/svg" xml:space="preserve" width="331.196mm" height="311.079mm" version="1.1" style="shape-rendering:geometricPrecision; text-rendering:geometricPrecision; image-rendering:optimizeQuality; fill-rule:evenodd; clip-rule:evenodd"
viewBox="0 0 13440 12624"
 xmlns:xlink="http://www.w3.org/1999/xlink"
 xmlns:xodm="http://www.corel.com/coreldraw/odm/2003">
 <defs>
  <style type="text/css">
   <![CDATA[
    .str0 {stroke:#ED3237;stroke-width:203;stroke-miterlimit:22.9256}
    .fil0 {fill:none}
   ]]>
  </style>
 </defs>
 <g id="Layer_x0020_1">
  <metadata id="CorelCorpID_0Corel-Layer"/>
  <rect class="fil0" x="12629" y="6060" width="812" height="812"/>
  <path class="fil0 str0" d="M165 278c1747,2200 3770,3864 5835,5769l6312 6020"/>
  <path class="fil0 str0" d="M12167 359c-1909,1993 -3911,3604 -5845,5701l-5817 6207"/>
  <path class="fil0 str0" d="M6436 12623c18,-1437 -165,-3641 -228,-5201l-207 -7415"/>
  <path class="fil0 str0" d="M12 6190c2209,-85 4494,30 6696,54l5729 41"/>
  <path class="fil0 str0" d="M1648 7c-27,2283 218,5433 273,7853l142 4565"/>
  <path class="fil0 str0" d="M10402 7c190,2595 214,5255 273,7853l142 4565"/>
  <path class="fil0 str0" d="M12 1868c1801,219 4921,17 6874,39l5551 57"/>
  <path class="fil0 str0" d="M12 10374c2261,5 4158,35 6360,60l6065 36"/>
 </g>
</svg>
